<svg xmlns="http://www.w3.org/2000/svg" width="100" height="100" viewBox="0 0 59 96" stroke-linejoin="round"><style>.a{fill:#fff;}</style><path d="M53.1 80l0.1 0c0.1 0 0.1 0 0.2 0.1 0.6 0.2 1.3 0.5 1.8 0.9 0.4 0.3 0.7 0.6 1 1 0.2 0.3 0.4 0.6 0.6 0.9 0.1 0.3 0.3 0.5 0.3 0.8 0.1 0.2 0.1 0.4 0.1 0.5 0.3 1.4 0.1 2.9-0.3 4.2 -0.1 0.3-0.2 0.5-0.3 0.8 -0.1 0.3-0.2 0.6-0.4 0.9 -0.3 0.6-0.6 1.3-1 1.9 -0.4 0.5-0.8 1-1.3 1.4 -0.6 0.5-1.4 0.9-2.1 1 -0.4 0.1-0.8 0.1-1.2 0.1 -0.6 0-1.2-0.1-1.8-0.3 -0.1 0-0.3-0.1-0.4-0.1 -0.1 0-0.2 0-0.2-0.1 0 0-0.1-0.1-0.1-0.1 -0.1-0.2-0.2-0.4 0-0.6 0 0 0.1-0.1 0.1-0.1 0.1-0.1 0.2-0.1 0.3-0.1 0 0 0.1 0 0.1 0 0.1 0 0.2 0.1 0.3 0.1 0.5 0.2 1.1 0.3 1.6 0.3 0.4 0 0.7 0 1.1-0.1 0.3-0.1 0.5-0.1 0.7-0.2 0.2-0.1 0.4-0.2 0.6-0.3 0.2-0.1 0.3-0.2 0.4-0.3 1-0.8 1.7-2 2.2-3.2 0.1-0.3 0.2-0.6 0.3-0.8 0.1-0.2 0.2-0.5 0.2-0.7 0.4-1.3 0.5-2.7 0-4 -0.1-0.2-0.2-0.4-0.3-0.6 -0.1-0.3-0.3-0.5-0.5-0.7 -0.3-0.3-0.6-0.6-0.9-0.8 -0.5-0.3-1-0.6-1.6-0.7l0 0c-0.1 0-0.2-0.1-0.2-0.2 -0.1-0.2-0.1-0.5 0.1-0.7 0.1 0 0.2-0.1 0.2-0.1 0.1 0 0.1 0 0.1 0Z" class="a"/><path d="M6.1 81.1c0.3 0 0.6 0 0.8 0.1 1.4 0.3 2.5 1.1 3.4 2.2 0.1 0.2 0.3 0.3 0.4 0.5 0.4 0.5 0.7 1 1 1.6 0.2 0.4 0.4 0.8 0.5 1.3 0.1 0.4 0.2 0.8 0.3 1.2 0.1 0.3 0.1 0.6 0.2 0.8 0.2 1.5 0.1 3.2-0.7 4.5 -0.1 0.2-0.3 0.5-0.5 0.7 -0.2 0.3-0.5 0.6-0.8 0.8 -0.5 0.4-1 0.6-1.6 0.8l-0.1 0c-0.1 0-0.2 0-0.2 0 -0.3 0-0.4-0.3-0.4-0.6 0-0.1 0-0.1 0-0.1 0.1-0.1 0.1-0.2 0.2-0.2 0.1 0 0.2-0.1 0.4-0.1 0.4-0.2 0.8-0.4 1.1-0.7 0.2-0.2 0.4-0.4 0.6-0.6 0.1-0.1 0.2-0.3 0.3-0.5 0.5-0.8 0.7-1.8 0.8-2.7 0-0.2 0-0.4 0-0.7 0-0.2 0-0.4-0.1-0.6 0-0.3-0.1-0.5-0.1-0.8 -0.1-0.4-0.2-0.7-0.3-1 -0.2-0.4-0.3-0.9-0.6-1.3 -0.3-0.5-0.6-1.1-1-1.5 -0.1-0.2-0.3-0.3-0.4-0.4 -0.1-0.1-0.3-0.3-0.4-0.4 -0.7-0.7-1.6-1.2-2.6-1.3 -0.2 0-0.4 0-0.6 0 -0.3 0-0.7 0.1-1 0.2l0 0c-0.1 0-0.2 0-0.3 0 0 0-0.1-0.1-0.1-0.1 -0.2-0.2-0.2-0.4-0.1-0.6 0.1-0.1 0.1-0.1 0.2-0.2 0.1 0 0.1 0 0.2-0.1 0.2-0.1 0.4-0.1 0.6-0.1 0.2 0 0.4-0.1 0.6-0.1 0.1 0 0.2 0 0.3 0Z" class="a"/><path d="M30.6 71.4c0.1 0 0.1 0 0.1 0l20.8 7.9c0.1 0 0.1 0.1 0.2 0.1 0 0 0.1 0.1 0.1 0.2 0.1 0.2 0 0.5-0.3 0.6 -0.1 0-0.2 0-0.2 0 -0.1 0-0.1 0-0.1 0l-20.8-7.9c-0.1 0-0.1-0.1-0.2-0.1 -0.1-0.2-0.2-0.4 0-0.6 0-0.1 0.1-0.1 0.1-0.1 0.1-0.1 0.2-0.1 0.3-0.1 0 0 0 0 0.1 0Z" class="a"/><path d="M7.1 63c0.4 0 0.7 0 1 0.1 0.3 0.1 0.6 0.2 1 0.3l0.1 0 21.7 8.2c6.1-2.3 12.1-4.6 18.2-6.8 0.7-0.2 1.3-0.3 2-0.3 0.8 0 1.6 0.2 2.4 0.5 0.9 0.4 1.6 0.9 2.2 1.6 0.4 0.5 0.8 1.1 1 1.7 0.4 1 0.8 2 1.1 3 0.2 0.6 0.3 1.3 0.3 1.9 0 1-0.2 2-0.7 2.9 -0.4 0.7-0.9 1.3-1.5 1.8 -0.5 0.4-1.1 0.8-1.8 1l-2 0.8 1.3 0.5 0 0 0.3 0.2 0.1 0.1c0 0 0.1 0 0.1 0.1 0 0.1 0.1 0.1 0.1 0.2 0.1 0.3-0.1 0.5-0.3 0.6 -0.1 0-0.1 0-0.2 0 -0.1 0-0.1 0-0.2 0 -0.1 0-0.1 0-0.2 0 -0.1 0-0.1 0-0.2 0 -0.2 0-0.4-0.1-0.6-0.1 -1.2 0-2.3 0.5-3.2 1.3 -0.7 0.6-1.2 1.3-1.6 2 -0.3 0.5-0.6 1.1-0.8 1.7 -0.3 1-0.5 2.1-0.4 3.1 0 0.2 0 0.4 0.1 0.6 0.2 1.1 0.6 2.2 1.4 2.9 0.1 0.1 0.2 0.2 0.3 0.3 0.2 0.1 0.4 0.2 0.6 0.3l0.1 0c0 0 0.1 0 0.1 0.1 0.1 0 0.1 0.1 0.1 0.2 0 0.1 0.1 0.1 0.1 0.2 0 0.2-0.1 0.4-0.3 0.5 -0.1 0-0.1 0-0.2 0 0 0-0.1 0-0.1 0l-0.4-0.1 0 0 -17.4-6.6c-7.1 2.7-14.2 5.4-21.3 8 -0.1 0-0.2 0.1-0.3 0.1 -0.6 0.2-1.2 0.3-1.9 0.2 -0.7 0-1.5-0.2-2.1-0.5 -0.9-0.4-1.7-0.9-2.3-1.7 -0.4-0.5-0.8-1.1-1-1.7 -0.4-1-0.8-2-1.1-3 -0.2-0.6-0.3-1.3-0.3-1.9 0-1.1 0.3-2.1 0.8-3.1 0.4-0.6 0.8-1.2 1.4-1.6 0.5-0.4 1.1-0.8 1.8-1l5.1-1.9c-1.9-0.7-3.9-1.4-5.8-2.2 -0.1 0-0.2-0.1-0.3-0.1 -0.6-0.3-1.1-0.6-1.6-1 -0.7-0.6-1.2-1.5-1.6-2.3 -0.3-0.7-0.4-1.4-0.4-2.2 0-0.7 0.1-1.3 0.3-1.9 0.4-1 0.7-2 1.1-3 0.2-0.5 0.5-1 0.9-1.5 0.8-1 1.9-1.7 3.1-2.1 0.5-0.1 1-0.2 1.5-0.2 0.1 0 0.1 0 0.1 0Zm-0.1 1c-0.4 0-0.9 0.1-1.3 0.2 -1 0.3-2 0.9-2.6 1.8 -0.3 0.4-0.5 0.8-0.7 1.3 -0.4 0.9-0.7 1.9-1.1 2.9 -0.2 0.5-0.3 1.1-0.3 1.6 0 0.8 0.2 1.5 0.5 2.2 0.3 0.6 0.7 1.2 1.3 1.7 0.4 0.4 0.9 0.7 1.5 0.9l0.1 0 6.9 2.6 0.1 0c0.1 0.1 0.1 0.1 0.1 0.1 0.1 0.2 0.1 0.5-0.1 0.6 -0.1 0.1-0.1 0.1-0.2 0.1 -2.2 0.8-4.3 1.6-6.5 2.4 -0.5 0.2-1 0.5-1.4 0.9 -0.4 0.4-0.8 0.8-1.1 1.3 -0.5 0.8-0.7 1.7-0.7 2.6 0 0.6 0.1 1.1 0.3 1.6 0.3 1 0.7 1.9 1.1 2.9 0.2 0.5 0.5 1 0.9 1.4 0.6 0.7 1.3 1.2 2.1 1.5 0.6 0.2 1.2 0.3 1.7 0.3 0.6 0 1.1-0.1 1.7-0.3l0.1 0 21.4-8 0.1 0c0 0 0.1 0 0.1 0 0.1 0 0.1 0 0.2 0l15.5 5.8c-0.1-0.1-0.1-0.2-0.2-0.3 0-0.1-0.1-0.2-0.1-0.3 -0.1-0.2-0.2-0.4-0.3-0.6 -0.6-1.6-0.6-3.4-0.1-5 0.1-0.3 0.2-0.6 0.3-0.9 0.1-0.4 0.3-0.8 0.5-1.2 0.3-0.5 0.6-0.9 0.9-1.4 0.8-1 1.7-1.8 2.8-2.3 0.2-0.1 0.5-0.2 0.7-0.3l0 0 -0.5-0.2 -0.1 0c-0.1-0.1-0.1-0.1-0.1-0.1 -0.1-0.2-0.1-0.5 0.1-0.6 0.1-0.1 0.1-0.1 0.2-0.1 1.1-0.4 2.3-0.8 3.4-1.3 0.5-0.2 1-0.5 1.5-0.9 0.5-0.4 0.9-1 1.2-1.5 0.4-0.7 0.5-1.5 0.5-2.3 0-0.6-0.1-1.1-0.3-1.7 -0.3-1-0.7-1.9-1.1-2.9 -0.2-0.5-0.5-1-0.8-1.4 -0.5-0.6-1.1-1.1-1.9-1.4 -0.6-0.3-1.3-0.4-2-0.4 -0.6 0-1.2 0.1-1.7 0.3l-0.1 0 -18.3 6.8 -0.1 0c0 0-0.1 0-0.1 0 -0.1 0-0.1 0-0.2 0 -7.3-2.8-14.6-5.7-22-8.3 -0.5-0.2-1-0.3-1.5-0.3 -0.1 0-0.1 0-0.2 0Z" class="a"/><path d="M23.1 8.3c-1.4 5.2 0.5 10.3 1.2 12.4 0.7 2.4 1.8 4.7 3 6.9 1.5 2.9 3.2 5.6 5.1 8.3 0.5 0.7 1 1.4 1.4 2.1 0.2 0.3 0.4 0.6 0.6 0.9 0 0.1 0.1 0.1 0.1 0.2 0.2 0.3 0.3 0.6 0.4 0.9 0 0.2 0.1 0.3 0.1 0.5 0.1 1.1-0.2 2.1-0.7 3.1 -0.1 0.2-0.2 0.3-0.2 0.4 -0.1 0.2-0.2 0.4-0.3 0.6 -0.2 0.3-0.3 0.5-0.5 0.7 -0.2 0.3-0.5 0.7-0.8 1 -0.3 0.4-0.7 0.9-1 1.3 -0.5 0.6-0.9 1.1-1.4 1.7 -0.2 0.2-0.4 0.5-0.5 0.7 -0.3 0.4-0.7 0.9-1 1.3 -0.2 0.3-0.4 0.6-0.6 1 -0.1 0.3-0.3 0.6-0.4 0.9 -0.1 0.2-0.1 0.4-0.1 0.7 0 0.2 0 0.3 0.1 0.5 0.1 0.4 0.4 0.7 0.7 0.9 0.2 0.2 0.4 0.3 0.7 0.3 0.1 0 0.1 0 0.2 0 0.1 0 0.2 0 0.2-0.1 0.2-0.1 0.4-0.3 0.6-0.5 0.3-0.4 0.5-0.8 0.7-1.3 0.1-0.2 0.2-0.4 0.2-0.7 0.1-0.3 0.2-0.6 0.3-0.9 0.4-1.2 0.9-2.3 1.4-3.5 0.4-0.9 0.9-1.9 1.3-2.8 0.4-0.7 0.7-1.3 1.1-2 0.3-0.5 0.6-1 1-1.5 0.2-0.3 0.5-0.7 0.8-1 0.2-0.3 0.4-0.5 0.7-0.8 0.2-0.2 0.4-0.4 0.6-0.6 1.1-1.1 2.5-2 4.1-2.3 0.3 0 0.5-0.1 0.8-0.1 0.4 0 0.8 0 1.1 0.1 0.6 0.1 1.2 0.3 1.7 0.6 1.1 0.6 2.2 2.3 2.2 2.5 0 0.1-0.2-0.5-1.7-0.8 -0.5-0.1-1.2-0.2-1.7-0.1 -1.1 0.2-2.1 0.9-2.8 1.7 -0.1 0.2-0.2 0.3-0.3 0.5 -0.1 0.2-0.3 0.4-0.4 0.7 -0.2 0.3-0.3 0.7-0.4 1 0 0.2-0.1 0.4-0.1 0.6 0 0.8 0.4 1.6 0.8 2.3 0.1 0.1 0.2 0.3 0.3 0.4 0.1 0.2 0.3 0.4 0.4 0.6 0.3 0.5 0.7 0.9 1 1.4 0.5 0.7 1 1.4 1.4 2.1 0.5 0.9 0.9 1.8 1.2 2.8 0.1 0.4 0.3 0.9 0.3 1.4 0.1 0.7 0.1 1.4 0.1 2.1 0 0.6-0.2 1.2-0.3 1.8 -0.1 0.5-0.3 1-0.6 1.5 -0.2 0.4-0.4 0.8-0.6 1.2 -0.2 0.3-0.4 0.7-0.7 1 -1.7 2.3-4.2 3.9-6.9 5 -1.6 0.6-3.4 1.1-5.1 1.3 -0.4 0.1-0.9 0.1-1.3 0.2 -0.4 0-0.7 0.1-1.1 0.1 -0.4 0-0.9 0-1.3 0 -1.5-0.1-3-0.5-4.5-1 -0.9-0.3-1.7-0.7-2.5-1.1 -0.6-0.3-1.2-0.7-1.8-1.1 -0.5-0.3-0.9-0.6-1.3-1 -2.1-1.6-3.9-3.7-4.9-6.1 -0.1-0.3-0.3-0.6-0.4-1 -0.2-0.5-0.3-1-0.4-1.5 -0.1-0.7-0.2-1.4-0.2-2.2 0-0.9 0.2-1.9 0.4-2.8 0.2-0.8 0.5-1.6 0.8-2.3 0.7-1.7 1.5-3.3 2.4-4.9 0.2-0.3 0.3-0.6 0.5-1 0.4-0.9 0.8-1.8 1.1-2.8 0.2-0.6 0.3-1.2 0.2-1.8 0-0.3-0.1-0.6-0.1-0.8 0-0.2-0.1-0.3-0.2-0.5 -0.4-0.9-0.8-1.7-1.6-2.3 -3.3-2.6-4.7-0.8-4.6-1.2 0.1-0.3 1.1-1.1 3.2-0.8 1.8 0.3 3.5 1.1 4.4 2.4 0.7 0.9 1.4 1.9 1.9 2.9 0.2 0.3 0.3 0.7 0.5 1.1 0.2 0.4 0.4 0.9 0.5 1.3 0.2 0.6 0.4 1.2 0.6 1.8 0.2 0.8 0.4 1.5 0.6 2.3 0.2 1 0.4 2.1 0.5 3.1 0-0.1 0-0.3 0-0.4 0-0.5 0.1-0.9 0-1.4 0-1.9-0.4-3.8-0.9-5.7 -0.4-1.3-0.8-2.6-1.3-3.8 -0.4-1.1-0.8-2.2-1.2-3.4 -0.2-0.5-0.3-0.9-0.5-1.4 -0.2-0.6-0.4-1.1-0.6-1.7 -0.2-0.5-0.3-1-0.4-1.4 -0.8-2.7-1.6-5.6-1.2-8.5 0.3-2.1 2-5.6 1.9-5.2 -0.2 0.6-0.8 3.6-0.5 6.8 0 0.4 0.1 0.8 0.2 1.2 0.3 1.7 0.8 3.4 1.4 5 0.7 1.7 1.5 3.4 2.4 5 0.6 1.1 1.4 2.1 2.2 3.1 0.3 0.4 0.6 0.7 1 1 0.3 0.3 0.6 0.5 0.9 0.7 0.2 0.2 0.5 0.3 0.7 0.4 0.2 0.1 0.4 0.1 0.6 0.2 0.2 0 0.3 0 0.5 0 0 0 0.1 0 0.1 0 0.1 0 0.2 0 0.3-0.1 0.1 0 0.1-0.1 0.2-0.1 0 0 0-0.1 0.1-0.1 0.1-0.2 0-0.4 0-0.5 -0.1-0.4-0.2-0.7-0.4-1.1 -0.1-0.2-0.1-0.3-0.2-0.5 -0.3-0.6-0.6-1.1-0.9-1.7 -0.6-1.1-1.2-2.1-1.8-3.2 -0.4-0.7-0.8-1.4-1.1-2.1 -0.3-0.6-0.6-1.1-0.8-1.7 -1.5-3.2-2.7-6.7-2.9-10.3 0-0.5 0-0.9 0-1.4 0-0.8 0.1-1.6 0.2-2.3 0.2-1.4 0.4-2.9 1.1-4.2 0.3-0.5 1-1.4 0.9-1.2Zm-1.1 6.7c0 0.8 0 1.7 0 2.5 0.3 3.3 1.3 6.5 2.7 9.5 0.3 0.6 0.5 1.1 0.8 1.7 0.9 1.7 1.9 3.4 2.8 5.2 0.2 0.3 0.3 0.5 0.5 0.8 0.4 0.7 0.8 1.5 1.1 2.2 0.1 0.3 0.2 0.6 0.3 0.9 0 0.2 0.1 0.5 0 0.7 0 0.1 0 0.3-0.1 0.4 0 0.1-0.1 0.2-0.2 0.3 0 0.1-0.1 0.1-0.1 0.2 -0.3 0.3-0.7 0.5-1.2 0.5 -0.3 0-0.5 0-0.8 0 -0.7-0.1-1.3-0.4-1.8-0.8 -0.5-0.3-0.9-0.7-1.3-1.1 -0.5-0.5-0.9-1-1.3-1.5 -1.3-1.7-2.3-3.5-3.2-5.5l0-0.1c0.6 1.7 1.2 3.5 1.9 5.2 0.2 0.5 0.3 0.9 0.5 1.4 0.6 1.8 1.2 3.7 1.6 5.6 0.3 1.4 0.4 2.8 0.4 4.2 0 1.3-0.3 2.5-0.7 3.7 0 0.1-0.1 0.2-0.1 0.3 0 0.1-0.1 0.2-0.2 0.3 0 0.1-0.1 0.1-0.2 0.1 -0.2 0.1-0.4 0-0.6-0.1 0-0.1-0.1-0.1-0.1-0.2 0 0 0-0.1 0-0.1 0-0.3 0-0.6-0.1-0.9 -0.2-2.3-0.5-4.6-1.1-6.9 -0.4-1.6-0.9-3.1-1.7-4.6 -0.8-1.6-1.9-3.1-3.4-4.1 -0.3-0.2-0.6-0.4-0.9-0.5l-0.1 0 0 0c0.1 0.1 0.2 0.1 0.4 0.2 0.6 0.4 1.2 0.8 1.7 1.3 0.3 0.3 0.6 0.6 0.8 1 0.1 0.2 0.2 0.5 0.3 0.7 0.1 0.2 0.1 0.4 0.1 0.6 0.2 1.2 0 2.3-0.4 3.4 -0.1 0.2-0.1 0.4-0.2 0.6 -0.1 0.3-0.2 0.5-0.3 0.8 -0.1 0.3-0.3 0.6-0.4 1 -0.2 0.4-0.4 0.9-0.6 1.3 -0.3 0.6-0.6 1.1-0.9 1.7 -0.2 0.4-0.3 0.7-0.5 1.1 -0.4 0.8-0.8 1.7-1.1 2.5 -0.2 0.6-0.4 1.2-0.6 1.8 -0.3 1.1-0.4 2.3-0.3 3.4 0 0.5 0.1 1 0.3 1.5 0.1 0.3 0.2 0.7 0.3 1 0.8 2.2 2.2 4 3.9 5.5 0.3 0.2 0.6 0.5 0.9 0.7 0.4 0.3 0.8 0.6 1.3 0.9 0.6 0.4 1.1 0.7 1.7 1 0.8 0.4 1.6 0.8 2.4 1.1 0.8 0.3 1.5 0.5 2.3 0.7 0.7 0.1 1.3 0.3 2 0.3 0.4 0 0.8 0 1.2 0 0.2 0 0.4 0 0.6 0 0.3 0 0.7-0.1 1-0.1 1-0.1 2.1-0.3 3.1-0.6 0.6-0.2 1.3-0.4 1.9-0.6 0.5-0.2 0.9-0.4 1.4-0.6 2.4-1.1 4.5-2.7 5.9-4.9 0.2-0.3 0.4-0.6 0.5-0.9 0.2-0.4 0.4-0.9 0.6-1.4 0.2-0.6 0.3-1.3 0.4-1.9 0.1-0.7 0-1.5-0.1-2.2 -0.1-0.4-0.2-0.7-0.3-1.1 -0.3-0.9-0.7-1.8-1.2-2.7 -0.4-0.7-0.8-1.3-1.3-1.9 -0.4-0.5-0.8-1-1.1-1.5 -0.1-0.1-0.2-0.3-0.3-0.4 -0.6-0.8-1.2-1.8-1.3-2.9 0-0.4 0-0.9 0.1-1.3 0.1-0.4 0.2-0.7 0.4-1 0.1-0.3 0.3-0.5 0.4-0.8 0.8-1.2 1.9-2.3 3.3-2.7 0.3-0.1 0.5-0.1 0.8-0.1 -0.1 0-0.2-0.1-0.3-0.1 -0.4-0.1-0.8-0.2-1.2-0.2 -0.2 0-0.4 0-0.6 0 -1.1 0.1-2.1 0.7-2.9 1.3 -0.2 0.1-0.3 0.2-0.5 0.4 -0.2 0.2-0.4 0.3-0.5 0.5 -0.2 0.2-0.4 0.4-0.6 0.7 -0.3 0.3-0.5 0.6-0.7 0.9 -0.3 0.4-0.6 0.8-0.8 1.2 -0.4 0.5-0.7 1.1-1 1.7 -0.4 0.7-0.8 1.5-1.2 2.2 -0.4 0.9-0.8 1.8-1.2 2.8 -0.3 0.8-0.6 1.6-0.9 2.4 -0.2 0.4-0.3 0.8-0.4 1.2 0 0.1-0.1 0.2-0.1 0.3 -0.2 0.6-0.5 1.1-0.9 1.5 -0.3 0.3-0.6 0.5-0.9 0.7 -0.1 0.1-0.3 0.1-0.4 0.1 -0.1 0-0.2 0-0.3 0 -0.5 0-0.9-0.2-1.3-0.5 -0.4-0.3-0.7-0.7-0.9-1.2 -0.1-0.3-0.2-0.6-0.2-0.8 0-0.8 0.3-1.6 0.6-2.3 0.3-0.5 0.6-1 0.9-1.5 0.4-0.6 0.9-1.2 1.4-1.8 0.5-0.6 0.9-1.1 1.4-1.7 0.3-0.4 0.6-0.8 0.9-1.1 0.2-0.3 0.5-0.7 0.7-1 0.2-0.2 0.3-0.5 0.4-0.7 0.1-0.2 0.2-0.4 0.3-0.5 0.1-0.1 0.1-0.3 0.2-0.4 0.1-0.1 0.1-0.2 0.1-0.3 0.3-0.7 0.5-1.4 0.3-2.2 0-0.1-0.1-0.2-0.1-0.4 -0.1-0.2-0.2-0.4-0.3-0.6 -0.3-0.4-0.6-0.8-0.9-1.3 -1.8-2.6-3.5-5.2-5.1-7.9 -1-1.7-1.9-3.4-2.7-5.2 -0.6-1.4-1.2-2.8-1.7-4.3 -0.4-1.3-0.8-2.7-1-4.1 -0.1-0.6-0.2-1.2-0.2-1.8l0-0.1c0 0 0 0.1 0 0.1Z" class="a"/><path d="M30 18.4c0.1 0 0.1 0 0.2 0 0.1 0.1 0.2 0.2 0.3 0.3 0 0.1 0 0.1 0 0.2 0 0.2 0 0.4-0.1 0.6 -0.2 1.7-0.6 3.3-1 4.9 -0.4 1.4-0.9 2.8-1.5 4.1l-0.1 0.1c-0.1 0.1-0.2 0.2-0.3 0.3 -0.1 0-0.1 0-0.2 0 -0.2 0-0.5-0.2-0.5-0.4 0-0.1 0-0.2 0-0.2 0-0.1 0.1-0.2 0.1-0.3 0.1-0.1 0.1-0.2 0.2-0.4 0.5-1.2 0.9-2.4 1.3-3.6 0.5-1.7 0.8-3.4 1-5.1l0 0c0 0 0-0.1 0-0.1 0.1-0.1 0.2-0.2 0.3-0.2 0 0 0.1 0 0.1 0 0 0 0 0 0.1 0Z" class="a"/><path d="M27.1 12c0.1 0 3 3.3 3.9 4.8 0.9 1.5 1.6 3 2.3 4.5 0.9 1.9 1.6 3.9 2.2 6 0.5 1.9 0.9 3.7 1.2 5.6 0.3 2.6 0.4 5.2 0.1 7.8 -0.1 1-0.3 1.9-0.5 2.9l0 0.1c0 0.1 0 0.2-0.1 0.2 0 0.1-0.1 0.2-0.2 0.2 -0.2 0.1-0.5 0.1-0.6-0.1 0 0-0.1-0.1-0.1-0.1 0-0.1 0-0.2 0-0.2 0 0 0-0.1 0-0.1 0.1-0.2 0.1-0.5 0.2-0.7 0.2-0.8 0.3-1.6 0.4-2.3 0.4-3.4 0.1-6.8-0.5-10.1 -0.5-2.4-1.2-4.8-2.1-7.1 -1-2.5-2.1-4.9-3.6-7.1l0 0c0.1 0.2 0.2 0.4 0.2 0.6 0.1 0.2 0.2 0.5 0.3 0.7 0.5 1.4 1 2.7 1.4 4.1 0.7 2.6 1.2 5.3 1.1 8.1 0 1.3-0.1 2.6-0.4 3.9 -0.1 0.4-0.1 0.7-0.2 1.1 0 0.1 0 0.1 0 0.2 0 0 0 0.2-0.1 0.3 0 0 0 0.1-0.1 0.1 0 0-0.1 0.1-0.1 0.1 -0.2 0.1-0.5 0.1-0.6-0.1 -0.1-0.1-0.1-0.2-0.1-0.3 0-0.1 0-0.1 0-0.2 0-0.2 0.1-0.3 0.1-0.5 0.2-1.1 0.4-2.2 0.5-3.3 0-0.6 0.1-1.1 0.1-1.7 0-3.6-0.8-7.1-2-10.4 -0.2-0.6-0.4-1.2-0.7-1.8 -0.3-0.7-1.9-5.2-1.8-5.3Z" class="a"/><path d="M35.2 20c0.3 0.9 2 4.5 2.4 5.4 0.4 1.2 0.9 2.3 1.4 3.4 0.7 1.5 1.3 3.1 2 4.6 0.2 0.4 0.3 0.8 0.5 1.1 0.3 0.7 0.6 1.4 0.8 2.1 0.1 0.2 0.2 0.5 0.2 0.7 0 0.1 0.1 0.3 0 0.4 0 0.1 0 0.1 0 0.2 -0.1 0.2-0.4 0.3-0.6 0.3 -0.1 0-0.1 0-0.2-0.1 -0.1-0.1-0.2-0.2-0.2-0.3 0-0.1 0-0.1 0-0.2 0-0.1 0-0.1 0-0.2 -0.1-0.4-0.3-0.9-0.4-1.3 -0.2-0.5-0.4-1-0.6-1.5 -0.6-1.4-1.2-2.7-1.8-4.1l-0.3-0.7 -0.3-0.6c0.1 0.4 0.2 0.7 0.3 1.1 0.2 0.7 0.3 1.3 0.5 2 0.2 1 0.4 2.1 0.6 3.1 0.1 0.8 0.2 1.7 0.2 2.6 0 0.1 0 0.3 0 0.4 -0.1 0.7-0.2 1.4-0.6 1.9 -0.1 0.1-0.1 0.2-0.2 0.3l0 0c0 0-0.1 0-0.1 0.1 -0.1 0-0.2 0.1-0.2 0.1 -0.2 0-0.4-0.2-0.5-0.4 0-0.1 0-0.1 0-0.2 0-0.1 0.1-0.2 0.1-0.2 0 0 0.1-0.1 0.1-0.1 0.2-0.3 0.3-0.6 0.4-1 0.1-0.6 0.1-1.2 0.1-1.7 0-1.1-0.2-2.1-0.4-3.1 -0.3-1.4-0.6-2.8-1-4.2 -0.3-1.3-0.4-1.9-0.8-4.1 -0.5-2.7-1.3-5.8-1.2-5.8Z" class="a"/><path d="M26 0c0 0 2 4.3 3 6.4 0.7 1.3 1.3 2.7 2 4.1 0.2 0.4 0.4 0.7 0.5 1.1 0.2 0.4 0.4 0.8 0.5 1.1 1.2 2.6 2.2 5.3 2.6 8.1 0.1 0.9 0.2 1.9 0.2 2.8 0 0.3 0 0.5 0 0.8 0 0.1 0 0.1 0 0.2 0 0 0 0.2 0 0.3 0 0 0 0.1 0 0.1 -0.1 0.2-0.4 0.3-0.6 0.2 -0.1 0-0.1-0.1-0.2-0.1 -0.1-0.1-0.1-0.2-0.1-0.3 0-0.1 0-0.1 0-0.2 0-0.2 0-0.1 0-0.3 0-0.6 0.1-1.3 0-1.9 -0.1-1.8-0.5-3.6-1-5.3 -0.7-2.1-1.6-4.2-2.6-6.2 0 0.2 0 0.2 0.1 0.4 0.1 0.7 0.3 1.4 0.3 2.1 0.1 0.8 0.1 1.6 0 2.4l0 0.3c0 0.4 0 0.3 0 0.3 0 0.1-0.1-0.3-0.2-0.3 -0.1 0-0.1 0.1-0.2 0.1 -0.2 0.1-0.5 0-0.6-0.2 0-0.1-0.1-0.1-0.1-0.2 0 0 0 0 0-0.1 0-0.2 0-0.3 0-0.5 0-0.8 0-1.7-0.1-2.5 -0.3-1.8-0.8-3.6-1.4-5.4 -0.4-1.1-0.8-2.1-1.2-3.6 -0.4-1.5-0.7-3.4-0.9-4Z" class="a"/><path d="M42.1 40.4c0 0 0.1 0 0.1 0 0.1 0 0.2 0.1 0.3 0.3 0 0.1 0 0.1 0 0.2 0 0.2 0 0.3 0 0.5 0 1.1-0.1 2.2-0.2 3.3 -0.1 0.7-0.2 1.3-0.4 2 -0.1 0.2-0.1 0.4-0.2 0.6 0 0 0 0 0 0.1 -0.1 0.1-0.1 0.2-0.3 0.2 -0.1 0-0.1 0-0.2 0 -0.2 0-0.5-0.2-0.5-0.4 0-0.1 0-0.2 0-0.2 0-0.1 0.1-0.2 0.1-0.3 0.4-1.3 0.6-2.8 0.7-4.2 0-0.4 0-0.7 0-1.1 0-0.2 0-0.3 0-0.5 0 0 0 0 0-0.1 0 0 0-0.1 0-0.1 0.1-0.1 0.2-0.2 0.4-0.3 0 0 0.1 0 0.1 0Z" class="a"/><path d="M26.2 30.6c0.1 0 0.1 0 0.2 0.1 0.2 0.1 0.3 0.2 0.3 0.4 0 0.1 0 0.1 0 0.2 0 0.1 0 0.1-0.1 0.2 -0.1 0.2-0.1 0.2-0.1 0.3 -0.4 1.3-0.7 2.6-0.9 3.9 0 0.3-0.1 0.6-0.1 1 0 0.1 0 0.3 0 0.4 0 0.1 0 0.2 0 0.2 0 0 0 0 0 0.1 0 0.1-0.1 0.2-0.2 0.3 0 0-0.1 0.1-0.1 0.1 -0.2 0.1-0.5 0-0.6-0.2 0-0.1-0.1-0.1-0.1-0.2 0-0.1 0-0.2 0-0.2 0-0.3 0-0.7 0.1-1 0.1-1.7 0.6-3.5 1.2-5.1 0 0 0 0 0-0.1 0.1-0.1 0.2-0.2 0.3-0.2 0 0 0.1 0 0.1 0 0 0 0 0 0.1 0Z" class="a"/><path d="M27 43.2c0 0-0.1 2.6-0.2 3.6 -0.1 1-0.2 1.9-0.5 2.8 0 0.2-0.1 0.4-0.1 0.7 -0.2 1.3-0.3 2.7-0.3 4 0 0.7 0.1 1.3 0.3 1.9 0.1 0.4 0.3 0.9 0.6 1.2 0.1 0.2 0.3 0.3 0.4 0.4 0.2 0.1 0.3 0.2 0.5 0.3 0.5 0.2 1.1 0.3 1.6 0.3 0.2 0 0.4 0 0.5-0.1 0.2 0 0.4-0.1 0.6-0.1 1.1-0.3 2.1-0.8 3-1.5 1.6-1.2 4.9-4.2 4.9-4 0 0.1-1.7 2.8-2 3.3 -0.2 0.4-0.4 0.7-0.6 1.1 -0.1 0.3-0.3 0.5-0.4 0.8 -0.1 0.2-0.2 0.4-0.3 0.6 -0.3 0.8-0.6 1.7-0.5 2.6 0 0.1 0 0.3 0.1 0.4 0.1 0.3 0.2 0.5 0.3 0.8 0.4 0.7 0.9 1.3 1.5 1.8l0 0c0 0 0 0.1 0.1 0.1 0 0.1 0.1 0.2 0 0.2 0 0.2-0.2 0.4-0.4 0.5 -0.1 0-0.1 0-0.2 0 -0.1 0-0.2-0.1-0.2-0.1 -0.1-0.1-0.2-0.2-0.3-0.3 -0.5-0.5-0.9-1-1.2-1.5 -0.2-0.3-0.3-0.7-0.4-1 -0.1-0.2-0.1-0.4-0.1-0.6 -0.2-1.3 0.2-2.5 0.8-3.6 0.1-0.2 0.2-0.5 0.3-0.7 -0.1 0.1-0.2 0.2-0.4 0.3 -0.4 0.3-0.8 0.6-1.2 0.8 -0.3 0.2-0.7 0.4-1 0.5 -0.2 0.1-0.4 0.2-0.6 0.2 -1.2 0.4-2.5 0.6-3.7 0.3 -0.2-0.1-0.4-0.1-0.6-0.2 -0.3-0.1-0.5-0.2-0.7-0.4 -0.2-0.2-0.4-0.4-0.6-0.6 -0.3-0.4-0.5-0.8-0.7-1.2 -0.3-0.8-0.4-1.7-0.4-2.6l0 0c-0.1 0.1-0.1 0.2-0.2 0.4 -0.1 0.1-0.1 0.2-0.2 0.3 -0.1 0.1-0.1 0.2-0.2 0.3 -0.1 0.1-0.1 0.2-0.2 0.3 -0.3 0.4-0.7 0.8-1.3 0.8 -0.1 0-0.2 0-0.3 0 -0.1 0-0.3-0.1-0.4-0.1 -0.2-0.1-0.4-0.2-0.6-0.4 0.1 0.2 0.1 0.4 0.1 0.5 0.1 0.2 0.1 0.4 0.1 0.7 0.3 1.4 0.4 2.8-0.1 4.1 -0.1 0.2-0.2 0.5-0.3 0.7 -0.2 0.4-0.4 0.7-0.6 1 -0.1 0.2-0.2 0.3-0.4 0.4l0 0c0 0-0.1 0-0.1 0.1 -0.1 0-0.2 0.1-0.2 0.1 -0.2 0-0.4-0.2-0.5-0.4 0-0.1 0-0.1 0-0.2 0-0.1 0-0.2 0.1-0.2 0.1-0.1 0.1-0.1 0.1-0.1 0.1-0.1 0.1-0.1 0.2-0.2 0.2-0.3 0.5-0.6 0.6-1 0.5-1.2 0.5-2.5 0.3-3.8 0-0.2-0.1-0.5-0.1-0.7 -0.1-0.3-0.1-0.6-0.2-0.9 -0.1-0.4-0.2-0.8-0.4-1.1 -0.2-0.5-0.3-1-0.5-1.4 -0.2-0.6-0.5-1.1-0.7-1.7 -0.1-0.2-1.8-3.8-1.9-3.9 -0.2-0.3 2.3 2.7 3.2 4.3 0.3 0.6 0.6 1.1 1 1.7 0.1 0.1 0.2 0.3 0.3 0.4 0.1 0.1 0.2 0.2 0.3 0.4 0.2 0.3 0.4 0.5 0.7 0.7 0.1 0.1 0.2 0.1 0.2 0.1 0 0 0.2 0 0.3 0 1.5-0.3 4-12 3.9-12Z" class="a"/><path d="M2.9 64.9c0.1 0 0.1 0 0.1 0l14.1 5.1c0 0 0.1 0 0.1 0 0.1 0.1 0.2 0.1 0.2 0.2 0 0 0 0.1 0 0.2 0 0.3-0.2 0.5-0.4 0.5 -0.1 0-0.2 0-0.3 0l-14.1-5.1c-0.1 0-0.2-0.1-0.2-0.2 -0.2-0.2-0.1-0.5 0.1-0.7 0.1-0.1 0.2-0.1 0.2-0.1 0.1 0 0.1 0 0.1 0Z" class="a"/><path d="M21.5 75.9c0.1 0 0.1 0 0.1 0l24.8 9.5c0 0 0 0 0.1 0 0.1 0 0.1 0.1 0.2 0.1 0 0.1 0.1 0.1 0.1 0.2 0.1 0.2-0.1 0.5-0.3 0.6 -0.1 0-0.2 0.1-0.3 0 -0.1 0-0.1 0-0.1 0l-24.8-9.5c0 0 0 0-0.1 0 -0.1 0-0.1-0.1-0.2-0.2 -0.1-0.2-0.1-0.5 0.2-0.7 0.1 0 0.1-0.1 0.2-0.1 0 0 0 0 0.1 0 0 0 0 0 0.1 0Z" class="a"/><path d="M21.3 77.5l0.1 0 24.8 9.5c0.1 0 0.1 0.1 0.1 0.1 0.1 0.1 0.1 0.3 0 0.5 0 0-0.1 0.1-0.1 0.1 -0.1 0-0.1 0-0.2 0 0 0 0 0-0.1 0l-24.8-9.5c0 0 0 0-0.1 0 0 0-0.1-0.1-0.1-0.1 -0.1-0.2 0-0.4 0.1-0.5 0.1 0 0.1 0 0.2 0 0 0 0 0 0.1 0Z" class="a"/><path d="M53.7 65.2c0.1 0 0.2 0 0.2 0.1 0 0 0.1 0.1 0.1 0.1 0.1 0.2 0.1 0.4 0 0.6 -0.1 0.1-0.1 0.1-0.2 0.2l-17.5 6.7c-0.1 0-0.1 0-0.2 0 -0.1 0-0.1 0-0.2 0 -0.2-0.1-0.3-0.4-0.2-0.6 0-0.1 0.1-0.2 0.2-0.2 0 0 0.1 0 0.1-0.1l17.5-6.7c0.1 0 0.1 0 0.1 0 0.1 0 0.1 0 0.1 0Z" class="a"/><path d="M54.8 66.3c0.1 0 0.1 0 0.1 0.1 0.1 0.1 0.1 0.3 0 0.4 0 0-0.1 0.1-0.1 0.1l-14.8 5.7c-0.1 0-0.2 0-0.2 0 -0.2-0.1-0.2-0.3-0.1-0.5 0 0 0.1-0.1 0.1-0.1l14.8-5.7c0 0 0 0 0.1 0 0 0 0 0 0.1 0Z" class="a"/><path d="M57.2 72.5c0.1 0 0.1 0 0.2 0.1 0.1 0.1 0.1 0.3 0.1 0.4 0 0-0.1 0.1-0.1 0.1 -3.8 1.7-7.7 3-11.6 4.5 0 0-0.1 0-0.1 0 -0.2 0-0.3-0.2-0.2-0.4 0-0.1 0.1-0.1 0.1-0.2 3.8-1.7 7.8-3 11.6-4.5 0 0 0 0 0.1 0 0 0 0 0 0.1 0Z" class="a"/><path d="M57.8 73.3c0 0 0.1 0 0.1 0.1 0.1 0.1 0.2 0.3 0.1 0.4 0 0.1-0.1 0.1-0.1 0.1 -3.7 1.7-7.6 3-11.4 4.5 -0.1 0-0.1 0-0.2 0 -0.2-0.1-0.3-0.3-0.1-0.4 0 0 0.1-0.1 0.1-0.1 3.7-1.7 7.6-3 11.4-4.5 0 0 0 0 0.1 0 0 0 0 0 0.1 0Z" class="a"/><path d="M2.1 66.4c0 0 0 0 0.1 0 1.3 0.4 2.6 0.9 3.9 1.4 0.1 0 0.1 0.1 0.2 0.1 0.1 0.2 0.1 0.4-0.1 0.5 0 0-0.1 0-0.1 0.1 -0.1 0-0.1 0-0.2 0 -1.3-0.4-2.6-0.9-3.9-1.4 0 0-0.1-0.1-0.1-0.1 -0.1-0.1-0.1-0.4 0-0.5 0.1 0 0.1-0.1 0.2-0.1 0 0 0.1 0 0.1 0Z" class="a"/><path d="M12.5 79.9c0.1 0 0.1 0 0.2 0.1 0.2 0.1 0.2 0.4 0 0.5 0 0-0.1 0.1-0.1 0.1 -0.9 0.4-1.8 0.8-2.8 1 -0.1 0-0.1 0-0.2 0 0 0-0.1 0-0.1 0 -0.2-0.1-0.2-0.3-0.1-0.5 0-0.1 0.1-0.1 0.1-0.1 0.9-0.4 1.8-0.8 2.8-1 0 0 0.1 0 0.1 0 0 0 0 0 0 0Z" class="a"/><path d="M15.2 80.7c0.1 0 0.2 0 0.2 0.1 0.1 0 0.1 0.1 0.1 0.1 0.2 0.2 0.1 0.5 0 0.6 0 0.1-0.1 0.1-0.2 0.1 -0.9 0.4-1.8 0.8-2.8 1 -0.1 0-0.2 0-0.2 0 -0.1 0-0.1 0-0.2-0.1 -0.2-0.1-0.3-0.5-0.2-0.7 0.1-0.1 0.1-0.1 0.2-0.2 0.9-0.4 1.8-0.8 2.8-1 0 0 0.1 0 0.1 0 0 0 0 0 0.1 0Z" class="a"/><path d="M25.4 84.5c0.1 0 0.2 0 0.3 0.1 0.2 0.1 0.2 0.4 0.2 0.6 0 0.1 0 0.1-0.1 0.1 0 0.1-0.1 0.1-0.2 0.1 -1.3 0.5-2.5 1-3.8 1.4 -0.1 0-0.1 0-0.2 0 -0.1 0-0.1 0-0.2-0.1 -0.2-0.1-0.3-0.3-0.2-0.6 0-0.1 0-0.1 0.1-0.1 0.1-0.1 0.1-0.1 0.2-0.2 1.3-0.5 2.5-1 3.8-1.4 0 0 0.1 0 0.1 0 0 0 0.1 0 0.1 0Z" class="a"/><path d="M27.3 85.2c0.1 0 0.2 0 0.2 0.1 0.2 0.1 0.3 0.5 0.2 0.7 -0.1 0.1-0.1 0.2-0.2 0.2 -1.5 0.6-3.1 1.2-4.6 1.7 -0.1 0-0.2 0-0.2 0 -0.1 0-0.1 0-0.2-0.1 -0.2-0.1-0.3-0.5-0.2-0.7 0.1-0.1 0.1-0.2 0.2-0.2 1.5-0.6 3.1-1.2 4.6-1.7 0 0 0.1 0 0.1 0 0 0 0.1 0 0.1 0Z" class="a"/><path d="M29.1 86c0.1 0 0.2 0 0.2 0.1 0.1 0 0.1 0.1 0.1 0.1 0.2 0.2 0.1 0.5 0 0.6 0 0.1-0.1 0.1-0.2 0.1 -0.9 0.4-1.8 0.8-2.8 1 -0.1 0-0.2 0-0.3 0 -0.3-0.1-0.4-0.4-0.3-0.6 0-0.1 0-0.1 0.1-0.2 0-0.1 0.1-0.1 0.2-0.1 0.9-0.4 1.8-0.8 2.8-1 0 0 0.1 0 0.1 0 0 0 0 0 0.1 0Z" class="a"/><path d="M5.7 82.9c0.2 0 0.3 0 0.5 0 1 0.2 1.8 0.7 2.5 1.4 0.8 0.8 1.4 1.8 1.8 2.8 0.4 1 0.6 2.1 0.5 3.2 0 0.2 0 0.3 0 0.5 -0.1 1.1-0.6 2.2-1.5 2.9 -0.1 0.1-0.3 0.2-0.4 0.3 -0.2 0.1-0.4 0.2-0.6 0.2 -0.3 0.1-0.5 0.1-0.8 0.1 -1 0-1.9-0.4-2.6-1 -0.1-0.1-0.3-0.2-0.4-0.3 -0.8-0.8-1.4-1.7-1.9-2.7 -0.4-1-0.6-2.2-0.6-3.3 0-0.2 0-0.3 0-0.5 0.1-1.1 0.6-2.2 1.4-2.9 0.1-0.1 0.3-0.2 0.4-0.3 0.2-0.1 0.4-0.2 0.5-0.2 0.3-0.1 0.5-0.1 0.8-0.1 0.1 0 0.1 0 0.2 0Zm-0.1 0.5c-0.2 0-0.5 0-0.7 0.1 -0.2 0-0.3 0.1-0.5 0.2 -0.1 0.1-0.2 0.1-0.3 0.2 -0.7 0.5-1.1 1.3-1.3 2.1 0 0.1-0.1 0.3-0.1 0.4 0 0.2 0 0.4 0 0.6 0 1 0.2 2 0.6 3 0.4 0.9 0.9 1.8 1.6 2.5 0.1 0.1 0.2 0.2 0.3 0.3 0.6 0.5 1.4 0.9 2.3 1 0.2 0 0.5 0 0.7-0.1 0.2 0 0.3-0.1 0.5-0.2 0.1-0.1 0.2-0.1 0.3-0.2 0.7-0.5 1.1-1.3 1.3-2.2 0-0.1 0.1-0.3 0.1-0.4 0-0.2 0-0.4 0-0.6 0-1-0.2-1.9-0.5-2.8 -0.4-0.9-0.9-1.8-1.6-2.5 -0.7-0.7-1.6-1.3-2.6-1.4 -0.1 0-0.2 0-0.2 0Z" class="a"/><path d="M52.6 81.7c0.3 0 0.6 0 0.9 0.1 0.2 0.1 0.4 0.2 0.6 0.3 0.1 0.1 0.3 0.2 0.4 0.3 0.9 0.7 1.3 1.8 1.4 2.9 0 0.2 0 0.3 0 0.5 0 1.1-0.2 2.3-0.7 3.3 -0.4 1-1 1.9-1.8 2.6 -0.1 0.1-0.3 0.2-0.4 0.3 -0.8 0.6-1.7 1-2.6 1 -0.3 0-0.6 0-0.9-0.1 -0.2-0.1-0.4-0.1-0.6-0.2 -0.1-0.1-0.3-0.2-0.4-0.3 -0.9-0.7-1.3-1.8-1.5-3 0-0.2 0-0.3 0-0.5 0-1.1 0.2-2.3 0.7-3.3 0.4-1 1-1.9 1.8-2.6 0.7-0.6 1.5-1.1 2.4-1.3 0.2 0 0.4 0 0.5-0.1 0.1 0 0.1 0 0.1 0Zm-0.1 0.5c-1 0-1.9 0.6-2.6 1.2 -0.7 0.7-1.3 1.5-1.7 2.4 -0.4 0.9-0.6 1.9-0.6 3 0 0.2 0 0.4 0 0.6 0 0.2 0 0.3 0.1 0.5 0.2 0.8 0.5 1.6 1.2 2.2 0.1 0.1 0.2 0.1 0.3 0.2 0.2 0.1 0.3 0.2 0.5 0.2 0.2 0.1 0.4 0.1 0.7 0.1 0.8 0 1.7-0.3 2.3-0.8 0.1-0.1 0.2-0.2 0.4-0.3 0.7-0.7 1.3-1.5 1.7-2.4 0.4-1 0.7-2 0.7-3.1 0-0.2 0-0.4 0-0.6 0-0.2 0-0.3-0.1-0.4 -0.2-0.9-0.6-1.8-1.4-2.3 -0.1-0.1-0.3-0.2-0.4-0.2 -0.2-0.1-0.4-0.1-0.7-0.1 -0.1 0-0.2 0-0.3 0Z" class="a"/><path d="M52.8 82.5c0.2 0 0.5 0 0.7 0.1 0.2 0.1 0.3 0.1 0.4 0.2 0.1 0.1 0.2 0.1 0.3 0.2 0.7 0.6 0.9 1.5 0.9 2.4 0 0.2 0 0.4 0 0.5 0 0.9-0.3 1.9-0.7 2.7 -0.4 0.9-1 1.6-1.7 2.3 -0.1 0.1-0.2 0.2-0.3 0.3 -0.6 0.5-1.3 0.8-2.1 0.8 -0.2 0-0.4 0-0.6-0.1 -0.2 0-0.3-0.1-0.5-0.2 -0.1-0.1-0.2-0.1-0.3-0.2 -0.1-0.1-0.2-0.2-0.2-0.2 -0.5-0.6-0.8-1.5-0.8-2.3 0-0.2 0-0.4 0-0.5 0.1-0.9 0.3-1.8 0.7-2.6 0.4-0.8 0.9-1.6 1.6-2.2 0.6-0.5 1.2-0.9 2-1.1 0.1 0 0.3 0 0.4-0.1 0.1 0 0.1 0 0.2 0Zm-0.2 0.5c-0.1 0-0.2 0-0.3 0 -0.3 0-0.5 0.1-0.8 0.2 -0.4 0.2-0.7 0.4-1.1 0.7 -0.6 0.6-1.1 1.3-1.5 2 -0.4 0.7-0.6 1.5-0.7 2.3 0 0.2 0 0.3 0 0.5 0 0.1 0 0.3 0 0.4 0 0.1 0 0.2 0 0.4 0.1 0.6 0.3 1.2 0.8 1.6 0.1 0.1 0.1 0.1 0.2 0.1 0.1 0.1 0.2 0.1 0.3 0.1 0.2 0 0.3 0.1 0.5 0.1 0.3 0 0.6-0.1 0.9-0.2 0.5-0.2 0.9-0.5 1.2-0.8 0.6-0.6 1.1-1.3 1.5-2 0.4-0.8 0.6-1.6 0.7-2.4 0-0.2 0-0.3 0-0.5 0-0.1 0-0.2 0-0.4 0-0.1 0-0.2 0-0.4 -0.1-0.6-0.4-1.3-1-1.6 -0.1-0.1-0.2-0.1-0.3-0.1 -0.2-0.1-0.3-0.1-0.5-0.1 -0.1 0-0.1 0-0.2 0Z" class="a"/><path d="M6 84.9c0.1 0 0.2 0 0.4 0 0.6 0.1 1.2 0.6 1.6 1 0.5 0.6 0.9 1.2 1.2 1.9 0.3 0.7 0.4 1.5 0.4 2.2 0 0.1 0 0.3 0 0.4 -0.1 0.7-0.3 1.4-0.9 1.9 -0.1 0.1-0.2 0.1-0.2 0.2 -0.1 0.1-0.2 0.1-0.3 0.1 -0.2 0-0.3 0.1-0.5 0.1 -0.6 0-1.2-0.3-1.7-0.7 -0.1-0.1-0.2-0.1-0.2-0.2 -0.5-0.5-0.9-1.2-1.2-1.9 -0.3-0.8-0.5-1.6-0.5-2.4 0-0.1 0-0.3 0-0.4 0.1-0.7 0.3-1.4 0.8-1.8 0.1-0.1 0.2-0.1 0.2-0.2 0.1-0.1 0.2-0.1 0.3-0.1 0.2-0.1 0.3-0.1 0.5-0.1 0.1 0 0.1 0 0.1 0Zm-0.1 0.7c-0.1 0-0.2 0-0.3 0.1 -0.1 0-0.1 0-0.2 0.1 -0.4 0.2-0.6 0.6-0.7 1 0 0.1 0 0.2-0.1 0.3 0 0.1 0 0.2 0 0.3 0 0.1 0 0.2 0 0.4 0 0.7 0.2 1.4 0.4 2 0.2 0.6 0.6 1.1 1 1.6 0.2 0.3 0.5 0.5 0.8 0.6 0.2 0.1 0.4 0.2 0.6 0.2 0.1 0 0.2 0 0.3 0 0.1 0 0.1 0 0.2-0.1 0.4-0.2 0.6-0.6 0.7-1 0-0.1 0-0.2 0.1-0.3 0-0.1 0-0.2 0-0.3 0-0.1 0-0.2 0-0.4 0-0.7-0.2-1.3-0.4-1.9 -0.2-0.6-0.5-1.1-1-1.6 -0.2-0.2-0.5-0.5-0.7-0.6 -0.2-0.1-0.5-0.2-0.8-0.3 -0.1 0-0.1 0-0.2 0Z" class="a"/><path d="M6.2 86.5c0.4 0 0.8 0.3 1.1 0.6 0.3 0.3 0.5 0.7 0.7 1 0.2 0.4 0.3 0.8 0.3 1.3 0 0.1 0 0.2 0 0.2 0 0.5-0.2 1-0.6 1.2 -0.1 0-0.1 0.1-0.2 0.1 -0.1 0-0.2 0-0.3 0.1 -0.4 0-0.8-0.2-1.1-0.5 -0.3-0.3-0.6-0.7-0.8-1.1 -0.2-0.4-0.4-0.9-0.4-1.4 0-0.1 0-0.2 0-0.2 0-0.4 0.1-0.9 0.5-1.1 0.1 0 0.1-0.1 0.2-0.1 0.1 0 0.2-0.1 0.3-0.1 0.1 0 0.1 0 0.2 0Zm-0.1 0.4c-0.1 0-0.1 0-0.2 0 -0.3 0.1-0.4 0.4-0.5 0.7 0 0.1 0 0.1 0 0.2 0 0.1 0 0.1 0 0.2 0 0.1 0 0.1 0 0.2 0 0.4 0.2 0.8 0.3 1.2 0.2 0.3 0.4 0.7 0.7 0.9 0.2 0.1 0.3 0.3 0.5 0.4 0.1 0.1 0.3 0.1 0.4 0.1 0.1 0 0.1 0 0.2 0 0 0 0.1 0 0.1 0 0.2-0.1 0.3-0.4 0.4-0.6 0 0 0-0.1 0-0.2 0-0.1 0-0.1 0-0.2 0-0.1 0-0.2 0-0.3 0-0.4-0.1-0.8-0.3-1.1 -0.2-0.3-0.4-0.7-0.6-0.9 -0.2-0.2-0.6-0.5-0.9-0.5 0 0 0 0-0.1 0Z" class="a"/><path d="M10.7 78.9c0.1 0 0.1 0 0.1 0l20.4 7.7c0.1 0 0.1 0.1 0.2 0.1 0 0 0.1 0.1 0.1 0.2 0.1 0.2 0 0.5-0.3 0.6 -0.1 0-0.2 0-0.2 0 -0.1 0-0.1 0-0.1 0l-20.4-7.7c-0.1 0-0.1-0.1-0.2-0.1 -0.1-0.2-0.2-0.4 0-0.6 0-0.1 0.1-0.1 0.1-0.1 0.1-0.1 0.2-0.1 0.3-0.1 0 0 0 0 0.1 0Z" class="a"/></svg>
